<svg xmlns="http://www.w3.org/2000/svg" version="1.1" xmlns:xlink="http://www.w3.org/1999/xlink" width="800px" height="800px"><svg fill="none" width="800px" height="800px" viewBox="0 0 24 24" xmlns="http://www.w3.org/2000/svg">
  <path d="M21,11c-2.25,0-2.25,2-4.5,2S14.25,11,12,11,9.75,13,7.5,13,5.25,11,3,11" stroke="#f87171" stroke-linecap="round" stroke-linejoin="round" stroke-width="3"></path>
  <path d="M3,5C5.25,5,5.25,7,7.5,7S9.75,5,12,5s2.26,2,4.51,2S18.75,5,21,5" stroke="#fbbf24" stroke-linecap="round" stroke-linejoin="round" stroke-width="3"></path>
  <path d="M21,17c-2.25,0-2.25,2-4.5,2S14.25,17,12,17,9.75,19,7.5,19,5.25,17,3,17" stroke="#34d399" stroke-linecap="round" stroke-linejoin="round" stroke-width="3"></path>
</svg><style>@media (prefers-color-scheme: light) { :root { filter: none; } }
@media (prefers-color-scheme: dark) { :root { filter: none; } }
</style></svg>